<?xml version="1.0" standalone="no"?>
<!DOCTYPE svg PUBLIC "-//W3C//DTD SVG 20010904//EN"
 "http://www.w3.org/TR/2001/REC-SVG-20010904/DTD/svg10.dtd">
<svg version="1.0" xmlns="http://www.w3.org/2000/svg"
 width="2048.000000pt" height="520.000000pt" viewBox="0 0 2048.000000 520.000000"
 preserveAspectRatio="xMidYMid meet">

<g transform="translate(0.000000,520.000000) scale(0.100000,-0.100000)"
fill="#000000" stroke="none">
<path d="M2863 4580 c-328 -87 -572 -318 -671 -635 -23 -76 -42 -233 -42 -351
l0 -74 -380 0 -380 0 2 -1242 3 -1243 23 -65 c66 -182 228 -330 402 -370 30
-7 65 -16 78 -21 32 -13 2359 -12 2367 1 3 5 17 10 30 10 43 0 161 47 222 88
120 81 215 220 243 352 8 40 10 386 8 1270 l-3 1215 -376 3 -376 2 -6 158 c-4
130 -10 173 -32 247 -92 315 -316 544 -629 642 -71 23 -102 26 -246 29 -137 3
-177 0 -237 -16z m382 -255 c138 -35 283 -133 366 -245 99 -133 139 -259 139
-442 l0 -118 -671 0 -672 0 6 138 c10 232 71 370 225 513 162 150 395 209 607
154z m-1095 -1173 l0 -108 -31 -30 c-45 -41 -69 -99 -69 -165 0 -99 47 -175
135 -215 94 -44 183 -27 261 51 58 58 81 123 69 197 -8 51 -45 119 -80 146
-25 20 -26 24 -23 124 l3 103 665 0 665 0 3 -103 3 -103 -34 -32 c-35 -33 -77
-127 -77 -172 0 -51 40 -134 85 -173 92 -81 214 -83 305 -4 58 49 83 104 83
177 -1 72 -21 122 -68 170 l-36 35 3 103 3 102 248 0 247 0 0 -1085 0 -1085
-30 -62 c-37 -75 -102 -135 -177 -163 -54 -20 -67 -20 -1236 -18 l-1182 3 -50
25 c-71 35 -139 108 -164 175 -21 55 -21 68 -21 1128 0 589 0 1075 0 1080 0 4
113 7 250 7 l250 0 0 -108z"/>
<path d="M7385 3426 c-70 -22 -120 -53 -164 -101 -60 -65 -84 -124 -89 -220
-4 -73 -1 -85 25 -135 21 -40 42 -63 78 -85 45 -28 55 -30 144 -30 86 1 102 4
154 30 74 37 128 89 164 157 25 47 28 63 28 148 0 108 -18 157 -74 198 -69 50
-178 66 -266 38z"/>
<path d="M5291 2773 c-50 -258 -96 -486 -101 -508 -6 -22 -21 -101 -35 -175
-14 -74 -30 -155 -36 -180 -22 -100 -109 -551 -109 -565 0 -13 37 -15 288 -15
l289 0 11 51 c7 28 12 58 12 67 1 46 17 44 71 -10 98 -97 211 -134 374 -125
147 9 252 48 373 140 362 275 429 919 124 1188 -119 105 -303 146 -462 104
-65 -17 -165 -66 -205 -101 -15 -13 -31 -24 -35 -24 -6 0 51 301 98 522 10 48
17 90 14 93 -3 3 -134 5 -292 5 l-287 0 -92 -467z m784 -473 c17 -11 42 -38
55 -62 21 -36 24 -56 24 -128 -2 -185 -105 -319 -247 -320 -138 0 -212 142
-162 314 51 174 211 269 330 196z"/>
<path d="M17265 3228 c-2 -7 -32 -155 -66 -328 -34 -173 -63 -319 -66 -323 -3
-4 -17 8 -32 27 -85 106 -201 156 -366 156 -114 -1 -188 -18 -295 -71 -69 -34
-102 -59 -175 -133 -133 -135 -207 -276 -239 -461 -53 -303 33 -571 225 -702
108 -74 266 -101 401 -68 73 17 185 70 224 106 27 25 33 17 23 -34 -4 -23 -8
-48 -9 -54 0 -10 64 -13 289 -13 267 0 290 1 295 18 2 9 12 58 21 107 9 50 20
108 26 130 7 30 101 505 152 765 2 14 23 115 45 225 22 110 42 211 45 225 3
14 23 117 46 230 22 113 41 206 41 208 0 1 -131 2 -290 2 -224 0 -292 -3 -295
-12z m-341 -962 c44 -18 73 -57 93 -125 14 -47 14 -67 4 -124 -27 -159 -130
-267 -254 -267 -67 0 -111 27 -144 89 -42 80 -27 234 32 322 34 52 73 89 109
105 40 17 118 18 160 0z"/>
<path d="M8210 2744 c-203 -45 -356 -179 -400 -350 -37 -145 -18 -244 65 -342
66 -76 157 -129 365 -209 135 -52 160 -67 160 -93 0 -30 -39 -50 -95 -50 -108
0 -266 62 -415 163 l-74 50 -23 -29 c-13 -16 -66 -90 -118 -164 l-96 -135 33
-28 c95 -82 283 -174 432 -212 164 -42 423 -45 541 -7 154 49 274 142 327 252
107 225 29 421 -215 543 -52 26 -98 47 -101 47 -15 0 -223 94 -238 108 -41 36
-4 82 67 82 22 0 60 -5 85 -11 54 -12 252 -105 314 -148 24 -17 46 -31 48 -31
2 0 26 30 53 68 27 37 83 110 123 162 l74 95 -30 25 c-49 40 -239 135 -339
169 -177 59 -394 77 -543 45z"/>
<path d="M10177 2745 c-73 -20 -146 -59 -206 -110 -29 -25 -55 -44 -57 -42 -3
3 8 86 18 127 3 13 -35 15 -288 18 l-291 2 -72 -367 c-40 -203 -76 -388 -82
-413 -20 -91 -119 -602 -119 -616 0 -12 46 -14 290 -14 160 0 290 2 290 5 0
25 144 720 156 752 8 23 31 62 50 87 119 156 319 115 297 -61 -7 -55 -125
-655 -144 -733 -5 -19 -9 -38 -9 -43 0 -4 132 -6 293 -5 l292 3 87 430 c110
545 113 626 32 775 -32 59 -123 148 -180 175 -95 45 -254 58 -357 30z"/>
<path d="M11510 2745 c-106 -21 -117 -25 -210 -69 -128 -60 -262 -188 -328
-314 -130 -247 -130 -565 -1 -758 75 -111 221 -211 373 -254 141 -40 365 -48
496 -18 149 34 296 109 397 204 8 8 -27 49 -138 160 -132 131 -151 147 -167
136 -9 -7 -51 -29 -92 -50 -71 -35 -80 -37 -170 -37 -72 0 -103 4 -127 17 -38
21 -79 72 -88 111 l-7 27 461 0 461 0 12 28 c7 16 11 86 12 172 0 132 -3 152
-27 223 -81 233 -258 374 -532 423 -96 17 -236 16 -325 -1z m269 -399 c51 -27
81 -99 62 -149 l-11 -27 -160 0 c-132 0 -162 3 -166 15 -12 30 67 125 131 158
38 20 108 21 144 3z"/>
<path d="M13020 2737 c-252 -76 -442 -286 -520 -577 -28 -103 -33 -306 -11
-410 46 -215 189 -376 378 -425 74 -19 183 -19 258 0 63 17 175 73 211 106 11
10 24 19 28 19 8 0 3 -40 -11 -97 l-5 -23 290 0 c268 0 291 1 296 18 6 20 276
1373 276 1385 0 4 -130 7 -289 7 l-289 0 -11 -47 c-5 -27 -13 -63 -16 -80 -4
-18 -9 -33 -11 -33 -2 0 -28 24 -57 53 -91 90 -193 127 -347 126 -68 0 -116
-6 -170 -22z m364 -471 c132 -55 135 -311 5 -446 -47 -49 -99 -72 -162 -71
-93 0 -154 67 -164 179 -20 223 155 408 321 338z"/>
<path d="M15317 2745 c-75 -21 -151 -62 -207 -112 -28 -25 -53 -43 -56 -41 -2
3 1 35 9 72 7 36 11 68 9 71 -3 3 -134 5 -292 5 l-286 0 -83 -417 c-45 -230
-86 -436 -90 -458 -24 -104 -101 -505 -101 -521 0 -12 49 -14 290 -14 160 0
290 2 290 4 0 25 144 722 156 753 72 193 298 253 343 91 11 -39 6 -73 -54
-373 -36 -181 -70 -352 -75 -380 -5 -27 -12 -60 -16 -73 l-6 -22 292 2 293 3
13 55 c7 30 29 138 49 240 19 102 40 205 45 230 17 73 58 289 70 368 37 233
-105 459 -325 518 -63 17 -205 16 -268 -1z"/>
<path d="M18475 2745 c-148 -29 -287 -89 -385 -166 -120 -94 -214 -233 -254
-375 -38 -141 -37 -347 4 -470 44 -131 151 -257 282 -331 179 -102 499 -121
743 -45 101 31 230 105 306 174 143 132 239 361 239 572 0 85 -3 106 -37 226
-51 186 -230 346 -453 405 -87 23 -347 29 -445 10z m245 -470 c72 -37 114
-166 91 -277 -33 -160 -127 -248 -252 -236 -58 6 -108 41 -135 95 -15 30 -19
60 -19 143 0 95 3 110 28 163 32 64 77 106 134 124 45 15 112 9 153 -12z"/>
<path d="M7051 2703 c-10 -48 -96 -478 -145 -733 -15 -74 -31 -155 -37 -180
-5 -25 -24 -115 -40 -200 -17 -85 -35 -175 -40 -199 -5 -24 -6 -47 -3 -52 3
-5 133 -9 289 -9 l284 0 10 38 c5 20 14 66 21 102 6 36 15 83 20 105 5 22 21
101 35 175 14 74 30 153 35 175 5 22 28 135 51 250 22 116 56 288 75 383 19
96 32 178 28 183 -3 5 -128 9 -289 9 l-283 0 -11 -47z"/>
</g>
</svg>
